<mxfile host="app.diagrams.net" agent="Mozilla/5.0 (Windows NT 10.0; Win64; x64) AppleWebKit/537.36 (KHTML, like Gecko) Chrome/133.0.0.0 Safari/537.36" version="26.0.11">
  <diagram name="PÃ¡gina-1" id="4tEYT7AZ6MiVWFtFd2NR">
    <mxGraphModel dx="2660.5" dy="1695.75" grid="1" gridSize="10" guides="1" tooltips="1" connect="1" arrows="1" fold="1" page="1" pageScale="0.75" pageWidth="827" pageHeight="1169" math="0" shadow="0">
      <root>
        <mxCell id="0" />
        <mxCell id="1" parent="0" />
        <mxCell id="L7UcbFVyr0ip80qx2Pjm-6" value="" style="group" parent="1" vertex="1" connectable="0">
          <mxGeometry x="-769" y="168" width="900" height="680" as="geometry" />
        </mxCell>
        <mxCell id="CcYeN_tBmfcXj74kv_Qn-15" value="" style="group" parent="L7UcbFVyr0ip80qx2Pjm-6" vertex="1" connectable="0">
          <mxGeometry width="900" height="680" as="geometry" />
        </mxCell>
        <mxCell id="CxktvPGWBiX8A-7O_LLw-127" value="" style="rounded=0;whiteSpace=wrap;html=1;" parent="CcYeN_tBmfcXj74kv_Qn-15" vertex="1">
          <mxGeometry width="900" height="680" as="geometry" />
        </mxCell>
        <mxCell id="CxktvPGWBiX8A-7O_LLw-87" style="edgeStyle=orthogonalEdgeStyle;rounded=0;orthogonalLoop=1;jettySize=auto;html=1;entryX=0;entryY=0.5;entryDx=0;entryDy=0;" parent="CcYeN_tBmfcXj74kv_Qn-15" source="CxktvPGWBiX8A-7O_LLw-89" target="CxktvPGWBiX8A-7O_LLw-56" edge="1">
          <mxGeometry relative="1" as="geometry" />
        </mxCell>
        <mxCell id="CxktvPGWBiX8A-7O_LLw-104" value="" style="group" parent="CcYeN_tBmfcXj74kv_Qn-15" vertex="1" connectable="0">
          <mxGeometry x="140" y="130" width="230" height="219.36" as="geometry" />
        </mxCell>
        <mxCell id="CxktvPGWBiX8A-7O_LLw-120" style="edgeStyle=orthogonalEdgeStyle;rounded=0;orthogonalLoop=1;jettySize=auto;html=1;" parent="CxktvPGWBiX8A-7O_LLw-104" source="CxktvPGWBiX8A-7O_LLw-89" edge="1">
          <mxGeometry relative="1" as="geometry">
            <mxPoint x="115" y="330" as="targetPoint" />
          </mxGeometry>
        </mxCell>
        <mxCell id="CxktvPGWBiX8A-7O_LLw-89" value="" style="rounded=0;whiteSpace=wrap;html=1;dashed=1;strokeWidth=2;strokeColor=light-dark(#151414, #d47d25);fontColor=#CC6600;" parent="CxktvPGWBiX8A-7O_LLw-104" vertex="1">
          <mxGeometry y="30" width="230" height="189.36" as="geometry" />
        </mxCell>
        <mxCell id="CxktvPGWBiX8A-7O_LLw-90" value="" style="swimlane;startSize=0;strokeWidth=2;fontColor=#CC6600;strokeColor=light-dark(#0f0f0f, #d47d25);" parent="CxktvPGWBiX8A-7O_LLw-104" vertex="1">
          <mxGeometry x="17.100775193798427" y="57.14802529579765" width="193.7984496124031" height="152.3187814497484" as="geometry" />
        </mxCell>
        <mxCell id="CxktvPGWBiX8A-7O_LLw-91" value="&lt;b&gt;&lt;font style=&quot;font-size: 24px; color: rgb(0, 0, 0);&quot;&gt;TERRAFORM&lt;/font&gt;&lt;/b&gt;" style="text;html=1;align=center;verticalAlign=middle;resizable=0;points=[];autosize=1;strokeColor=none;fillColor=none;fontColor=light-dark(#4A4A4A,#D47D25);" parent="CxktvPGWBiX8A-7O_LLw-90" vertex="1">
          <mxGeometry x="9.689922480620154" y="46.16782265741874" width="180" height="40" as="geometry" />
        </mxCell>
        <mxCell id="CxktvPGWBiX8A-7O_LLw-92" value="&lt;p style=&quot;line-height: 100%;&quot;&gt;&lt;font style=&quot;font-size: 14px; color: rgb(0, 0, 0);&quot;&gt;network_ZTNA_1&lt;/font&gt;&lt;/p&gt;" style="text;strokeColor=none;fillColor=none;html=1;fontSize=22;fontStyle=1;verticalAlign=middle;align=left;strokeWidth=0;rotation=0;flipH=0;flipV=1;fontColor=#000000;" parent="CxktvPGWBiX8A-7O_LLw-104" vertex="1">
          <mxGeometry x="1" width="174.41860465116278" height="30.463756289949675" as="geometry" />
        </mxCell>
        <mxCell id="CxktvPGWBiX8A-7O_LLw-93" value="" style="sketch=0;outlineConnect=0;fontColor=light-dark(#100f0f, #d47d25);gradientColor=none;fillColor=#000000;strokeColor=none;dashed=0;verticalLabelPosition=bottom;verticalAlign=top;align=center;html=1;fontSize=12;fontStyle=0;aspect=fixed;pointerEvents=1;shape=mxgraph.aws4.traditional_server;" parent="CxktvPGWBiX8A-7O_LLw-104" vertex="1">
          <mxGeometry x="102.76937984496124" y="136.781585747314" width="29.877328981368148" height="51.78838569291445" as="geometry" />
        </mxCell>
        <mxCell id="MFKBEdTGB1Vrko5QTtPI-16" value="&lt;p style=&quot;line-height: 100%;&quot;&gt;&lt;font style=&quot;color: rgb(0, 0, 0); font-size: 11px;&quot;&gt;Vault-SSH-helper&lt;/font&gt;&lt;/p&gt;" style="text;strokeColor=none;fillColor=none;html=1;fontSize=22;fontStyle=1;verticalAlign=middle;align=left;strokeWidth=0;rotation=0;flipH=0;flipV=1;fontColor=#000000;" parent="CxktvPGWBiX8A-7O_LLw-104" vertex="1">
          <mxGeometry x="118.77000000000004" y="45" width="87.13" height="36.73" as="geometry" />
        </mxCell>
        <mxCell id="CxktvPGWBiX8A-7O_LLw-121" value="&lt;font style=&quot;font-size: 30px;&quot;&gt;&lt;b&gt;provisioned by infrastructure as code&lt;/b&gt;&lt;/font&gt;" style="text;whiteSpace=wrap;html=1;fontColor=#000000;" parent="CcYeN_tBmfcXj74kv_Qn-15" vertex="1">
          <mxGeometry x="40" y="10" width="390" height="40" as="geometry" />
        </mxCell>
        <mxCell id="CxktvPGWBiX8A-7O_LLw-56" value="" style="rounded=0;whiteSpace=wrap;html=1;dashed=1;strokeWidth=2;" parent="CcYeN_tBmfcXj74kv_Qn-15" vertex="1">
          <mxGeometry x="640" y="80" width="210" height="573.18" as="geometry" />
        </mxCell>
        <mxCell id="CxktvPGWBiX8A-7O_LLw-61" value="" style="swimlane;startSize=0;strokeWidth=2;fontColor=#CC6600;strokeColor=light-dark(#0d0d0c, #d47d25);" parent="CcYeN_tBmfcXj74kv_Qn-15" vertex="1">
          <mxGeometry x="660" y="470.18000000000006" width="170" height="80" as="geometry">
            <mxRectangle x="-770" y="140" width="50" height="40" as="alternateBounds" />
          </mxGeometry>
        </mxCell>
        <mxCell id="CxktvPGWBiX8A-7O_LLw-62" value="&lt;b style=&quot;&quot;&gt;&lt;font style=&quot;font-size: 20px;&quot;&gt;BACKUP&lt;/font&gt;&lt;/b&gt;" style="text;html=1;align=center;verticalAlign=middle;resizable=0;points=[];autosize=1;strokeColor=none;fillColor=none;fontColor=light-dark(#000000,#D47D25);" parent="CxktvPGWBiX8A-7O_LLw-61" vertex="1">
          <mxGeometry x="29" y="12" width="110" height="40" as="geometry" />
        </mxCell>
        <mxCell id="CxktvPGWBiX8A-7O_LLw-63" value="" style="sketch=0;outlineConnect=0;fontColor=#232F3E;gradientColor=none;fillColor=#000000;strokeColor=none;dashed=0;verticalLabelPosition=bottom;verticalAlign=top;align=center;html=1;fontSize=12;fontStyle=0;aspect=fixed;pointerEvents=1;shape=mxgraph.aws4.container_1;" parent="CxktvPGWBiX8A-7O_LLw-61" vertex="1">
          <mxGeometry x="62" y="46" width="48" height="31" as="geometry" />
        </mxCell>
        <mxCell id="CxktvPGWBiX8A-7O_LLw-65" value="" style="group" parent="CcYeN_tBmfcXj74kv_Qn-15" vertex="1" connectable="0">
          <mxGeometry x="630" y="250.17999999999995" width="230" height="121" as="geometry" />
        </mxCell>
        <mxCell id="CxktvPGWBiX8A-7O_LLw-66" value="" style="swimlane;startSize=0;strokeWidth=2;fontColor=#CC6600;strokeColor=light-dark(#0d0d0c, #d47d25);" parent="CxktvPGWBiX8A-7O_LLw-65" vertex="1">
          <mxGeometry x="30" y="41" width="170" height="80" as="geometry">
            <mxRectangle x="-770" y="140" width="50" height="40" as="alternateBounds" />
          </mxGeometry>
        </mxCell>
        <mxCell id="CxktvPGWBiX8A-7O_LLw-67" value="&lt;b style=&quot;&quot;&gt;&lt;font style=&quot;font-size: 20px;&quot;&gt;MariaDB&lt;/font&gt;&lt;/b&gt;" style="text;html=1;align=center;verticalAlign=middle;resizable=0;points=[];autosize=1;strokeColor=none;fillColor=none;fontColor=light-dark(#000000,#D47D25);" parent="CxktvPGWBiX8A-7O_LLw-66" vertex="1">
          <mxGeometry x="34" y="12" width="100" height="40" as="geometry" />
        </mxCell>
        <mxCell id="CxktvPGWBiX8A-7O_LLw-68" value="" style="sketch=0;outlineConnect=0;fontColor=#232F3E;gradientColor=none;fillColor=#000000;strokeColor=none;dashed=0;verticalLabelPosition=bottom;verticalAlign=top;align=center;html=1;fontSize=12;fontStyle=0;aspect=fixed;pointerEvents=1;shape=mxgraph.aws4.container_1;" parent="CxktvPGWBiX8A-7O_LLw-66" vertex="1">
          <mxGeometry x="60" y="46" width="48" height="31" as="geometry" />
        </mxCell>
        <mxCell id="CxktvPGWBiX8A-7O_LLw-69" value="" style="swimlane;startSize=0;strokeWidth=2;fontColor=#CC6600;strokeColor=light-dark(#0d0d0c, #d47d25);" parent="CcYeN_tBmfcXj74kv_Qn-15" vertex="1">
          <mxGeometry x="660" y="560.1800000000001" width="170" height="80" as="geometry">
            <mxRectangle x="-770" y="140" width="50" height="40" as="alternateBounds" />
          </mxGeometry>
        </mxCell>
        <mxCell id="CxktvPGWBiX8A-7O_LLw-70" value="&lt;b style=&quot;&quot;&gt;&lt;font style=&quot;font-size: 20px;&quot;&gt;NAS&lt;/font&gt;&lt;/b&gt;" style="text;html=1;align=center;verticalAlign=middle;resizable=0;points=[];autosize=1;strokeColor=none;fillColor=none;fontColor=light-dark(#000000,#D47D25);" parent="CxktvPGWBiX8A-7O_LLw-69" vertex="1">
          <mxGeometry x="50" y="12" width="70" height="40" as="geometry" />
        </mxCell>
        <mxCell id="CxktvPGWBiX8A-7O_LLw-71" value="" style="sketch=0;outlineConnect=0;fontColor=#232F3E;gradientColor=none;fillColor=#000000;strokeColor=none;dashed=0;verticalLabelPosition=bottom;verticalAlign=top;align=center;html=1;fontSize=12;fontStyle=0;aspect=fixed;pointerEvents=1;shape=mxgraph.aws4.container_1;" parent="CxktvPGWBiX8A-7O_LLw-69" vertex="1">
          <mxGeometry x="61" y="45" width="48" height="31" as="geometry" />
        </mxCell>
        <mxCell id="MFKBEdTGB1Vrko5QTtPI-22" value="&lt;p style=&quot;line-height: 100%;&quot;&gt;&lt;font style=&quot;color: rgb(0, 0, 0); font-size: 11px;&quot;&gt;Vault-SSH-helper&lt;/font&gt;&lt;/p&gt;" style="text;strokeColor=none;fillColor=none;html=1;fontSize=22;fontStyle=1;verticalAlign=middle;align=left;strokeWidth=0;rotation=0;flipH=0;flipV=1;fontColor=#000000;" parent="CxktvPGWBiX8A-7O_LLw-69" vertex="1">
          <mxGeometry x="77.87" y="-13.180000000000064" width="87.13" height="36.73" as="geometry" />
        </mxCell>
        <mxCell id="CxktvPGWBiX8A-7O_LLw-72" value="" style="swimlane;startSize=0;strokeWidth=2;fontColor=#CC6600;strokeColor=light-dark(#0d0d0c, #d47d25);" parent="CcYeN_tBmfcXj74kv_Qn-15" vertex="1">
          <mxGeometry x="660" y="380.18000000000006" width="170" height="80" as="geometry">
            <mxRectangle x="-770" y="140" width="50" height="40" as="alternateBounds" />
          </mxGeometry>
        </mxCell>
        <mxCell id="CxktvPGWBiX8A-7O_LLw-73" value="&lt;b style=&quot;&quot;&gt;&lt;font style=&quot;font-size: 20px;&quot;&gt;Safe Credential&lt;/font&gt;&lt;/b&gt;" style="text;html=1;align=center;verticalAlign=middle;resizable=0;points=[];autosize=1;strokeColor=none;fillColor=none;fontColor=light-dark(#000000,#D47D25);" parent="CxktvPGWBiX8A-7O_LLw-72" vertex="1">
          <mxGeometry x="-2" y="12" width="170" height="40" as="geometry" />
        </mxCell>
        <mxCell id="CxktvPGWBiX8A-7O_LLw-74" value="" style="sketch=0;outlineConnect=0;fontColor=#232F3E;gradientColor=none;fillColor=#000000;strokeColor=none;dashed=0;verticalLabelPosition=bottom;verticalAlign=top;align=center;html=1;fontSize=12;fontStyle=0;aspect=fixed;pointerEvents=1;shape=mxgraph.aws4.container_1;" parent="CxktvPGWBiX8A-7O_LLw-72" vertex="1">
          <mxGeometry x="60" y="46" width="48" height="31" as="geometry" />
        </mxCell>
        <mxCell id="CxktvPGWBiX8A-7O_LLw-75" value="" style="swimlane;startSize=0;strokeWidth=2;fontColor=#CC6600;strokeColor=light-dark(#0d0d0c, #d47d25);" parent="CcYeN_tBmfcXj74kv_Qn-15" vertex="1">
          <mxGeometry x="660" y="200.18" width="170" height="80" as="geometry">
            <mxRectangle x="-770" y="140" width="50" height="40" as="alternateBounds" />
          </mxGeometry>
        </mxCell>
        <mxCell id="CxktvPGWBiX8A-7O_LLw-76" value="&lt;b style=&quot;&quot;&gt;&lt;font style=&quot;font-size: 20px;&quot;&gt;GLPI&lt;/font&gt;&lt;/b&gt;" style="text;html=1;align=center;verticalAlign=middle;resizable=0;points=[];autosize=1;strokeColor=none;fillColor=none;fontColor=light-dark(#000000,#D47D25);" parent="CxktvPGWBiX8A-7O_LLw-75" vertex="1">
          <mxGeometry x="46" y="12" width="70" height="40" as="geometry" />
        </mxCell>
        <mxCell id="CxktvPGWBiX8A-7O_LLw-77" value="" style="sketch=0;outlineConnect=0;fontColor=#232F3E;gradientColor=none;fillColor=#000000;strokeColor=none;dashed=0;verticalLabelPosition=bottom;verticalAlign=top;align=center;html=1;fontSize=12;fontStyle=0;aspect=fixed;pointerEvents=1;shape=mxgraph.aws4.container_1;" parent="CxktvPGWBiX8A-7O_LLw-75" vertex="1">
          <mxGeometry x="59" y="46" width="48" height="31" as="geometry" />
        </mxCell>
        <mxCell id="CxktvPGWBiX8A-7O_LLw-84" value="&lt;p style=&quot;line-height: 100%;&quot;&gt;&lt;font style=&quot;font-size: 14px; color: rgb(0, 0, 0);&quot;&gt;network_ZTNA_3&lt;/font&gt;&lt;/p&gt;" style="text;strokeColor=none;fillColor=none;html=1;fontSize=22;fontStyle=1;verticalAlign=middle;align=left;strokeWidth=0;rotation=0;flipH=0;flipV=1;fontColor=#000000;" parent="CcYeN_tBmfcXj74kv_Qn-15" vertex="1">
          <mxGeometry x="641" y="48" width="174.41860465116278" height="35.08771929824561" as="geometry" />
        </mxCell>
        <mxCell id="CxktvPGWBiX8A-7O_LLw-123" value="" style="swimlane;startSize=0;strokeWidth=2;fontColor=#CC6600;strokeColor=light-dark(#0d0d0c, #d47d25);" parent="CcYeN_tBmfcXj74kv_Qn-15" vertex="1">
          <mxGeometry x="660" y="107.09000000000003" width="170" height="80" as="geometry">
            <mxRectangle x="-770" y="140" width="50" height="40" as="alternateBounds" />
          </mxGeometry>
        </mxCell>
        <mxCell id="CxktvPGWBiX8A-7O_LLw-124" value="&lt;b style=&quot;&quot;&gt;&lt;font style=&quot;font-size: 20px;&quot;&gt;Ngnix&lt;/font&gt;&lt;/b&gt;" style="text;html=1;align=center;verticalAlign=middle;resizable=0;points=[];autosize=1;strokeColor=none;fillColor=none;fontColor=light-dark(#000000,#D47D25);" parent="CxktvPGWBiX8A-7O_LLw-123" vertex="1">
          <mxGeometry x="44" y="12" width="80" height="40" as="geometry" />
        </mxCell>
        <mxCell id="CxktvPGWBiX8A-7O_LLw-125" value="" style="sketch=0;outlineConnect=0;fontColor=#232F3E;gradientColor=none;fillColor=#000000;strokeColor=none;dashed=0;verticalLabelPosition=bottom;verticalAlign=top;align=center;html=1;fontSize=12;fontStyle=0;aspect=fixed;pointerEvents=1;shape=mxgraph.aws4.container_1;" parent="CxktvPGWBiX8A-7O_LLw-123" vertex="1">
          <mxGeometry x="59" y="46" width="48" height="31" as="geometry" />
        </mxCell>
        <mxCell id="MFKBEdTGB1Vrko5QTtPI-17" value="&lt;p style=&quot;line-height: 100%;&quot;&gt;&lt;font style=&quot;color: rgb(0, 0, 0); font-size: 11px;&quot;&gt;Vault-SSH-helper&lt;/font&gt;&lt;/p&gt;" style="text;strokeColor=none;fillColor=none;html=1;fontSize=22;fontStyle=1;verticalAlign=middle;align=left;strokeWidth=0;rotation=0;flipH=0;flipV=1;fontColor=#000000;" parent="CxktvPGWBiX8A-7O_LLw-123" vertex="1">
          <mxGeometry x="75" y="-12.09000000000006" width="87.13" height="36.73" as="geometry" />
        </mxCell>
        <mxCell id="K5uGJ2R5hkaABnmaKe05-1" value="&lt;p style=&quot;line-height: 100%;&quot;&gt;&lt;font style=&quot;color: rgb(0, 0, 0); font-size: 12px;&quot;&gt;ZTNA_agent&lt;/font&gt;&lt;/p&gt;" style="text;strokeColor=none;fillColor=none;html=1;fontSize=22;fontStyle=1;verticalAlign=middle;align=left;strokeWidth=0;rotation=0;flipH=0;flipV=1;fontColor=#000000;" parent="CcYeN_tBmfcXj74kv_Qn-15" vertex="1">
          <mxGeometry x="643" y="73.35999999999997" width="87.13" height="36.73" as="geometry" />
        </mxCell>
        <mxCell id="K5uGJ2R5hkaABnmaKe05-2" value="&lt;p style=&quot;line-height: 100%;&quot;&gt;&lt;font style=&quot;color: rgb(0, 0, 0); font-size: 12px;&quot;&gt;ZTNA_agent&lt;/font&gt;&lt;/p&gt;" style="text;strokeColor=none;fillColor=none;html=1;fontSize=22;fontStyle=1;verticalAlign=middle;align=left;strokeWidth=0;rotation=0;flipH=0;flipV=1;fontColor=#000000;" parent="CcYeN_tBmfcXj74kv_Qn-15" vertex="1">
          <mxGeometry x="146.37" y="153" width="87.13" height="36.73" as="geometry" />
        </mxCell>
        <mxCell id="CxktvPGWBiX8A-7O_LLw-79" value="" style="rounded=0;whiteSpace=wrap;html=1;dashed=1;strokeWidth=2;strokeColor=light-dark(#0d0d0d, #d47d25);" parent="CcYeN_tBmfcXj74kv_Qn-15" vertex="1">
          <mxGeometry x="48.5" y="466.5" width="418" height="143.5" as="geometry" />
        </mxCell>
        <mxCell id="CxktvPGWBiX8A-7O_LLw-83" value="&lt;p style=&quot;line-height: 100%;&quot;&gt;&lt;font style=&quot;font-size: 14px;&quot;&gt;network_ZTNA_2&lt;/font&gt;&lt;/p&gt;" style="text;strokeColor=none;fillColor=none;html=1;fontSize=22;fontStyle=1;verticalAlign=middle;align=left;strokeWidth=0;rotation=0;flipH=0;flipV=1;fontColor=#000000;" parent="CcYeN_tBmfcXj74kv_Qn-15" vertex="1">
          <mxGeometry x="51.5" y="430" width="180" height="40" as="geometry" />
        </mxCell>
        <mxCell id="CxktvPGWBiX8A-7O_LLw-112" value="" style="group" parent="CcYeN_tBmfcXj74kv_Qn-15" vertex="1" connectable="0">
          <mxGeometry x="66.5" y="497.88" width="119.84774860861818" height="104.75" as="geometry" />
        </mxCell>
        <mxCell id="CxktvPGWBiX8A-7O_LLw-113" value="" style="swimlane;startSize=0;strokeWidth=2;" parent="CxktvPGWBiX8A-7O_LLw-112" vertex="1">
          <mxGeometry width="119.5" height="100" as="geometry" />
        </mxCell>
        <mxCell id="CxktvPGWBiX8A-7O_LLw-114" value="" style="sketch=0;pointerEvents=1;shadow=0;dashed=0;html=1;strokeColor=none;fillColor=#434445;aspect=fixed;labelPosition=center;verticalLabelPosition=bottom;verticalAlign=top;align=center;outlineConnect=0;shape=mxgraph.vvd.virtual_machine;rounded=0;strokeWidth=3;fontFamily=Helvetica;fontSize=12;fontColor=default;" parent="CxktvPGWBiX8A-7O_LLw-112" vertex="1">
          <mxGeometry x="29.749945119510336" y="11" width="56.23449131513648" height="56.23449131513648" as="geometry" />
        </mxCell>
        <mxCell id="CxktvPGWBiX8A-7O_LLw-115" value="&lt;b&gt;&lt;font style=&quot;color: rgb(0, 0, 0); font-size: 20px;&quot;&gt;Vault&lt;/font&gt;&lt;/b&gt;" style="text;html=1;align=center;verticalAlign=middle;resizable=0;points=[];autosize=1;strokeColor=none;fillColor=none;" parent="CxktvPGWBiX8A-7O_LLw-112" vertex="1">
          <mxGeometry x="24.847748608618172" y="64.75" width="70" height="40" as="geometry" />
        </mxCell>
        <mxCell id="CcYeN_tBmfcXj74kv_Qn-4" value="" style="group" parent="CcYeN_tBmfcXj74kv_Qn-15" vertex="1" connectable="0">
          <mxGeometry x="196.5" y="499" width="119.84774860861818" height="104.75" as="geometry" />
        </mxCell>
        <mxCell id="CcYeN_tBmfcXj74kv_Qn-5" value="" style="swimlane;startSize=0;strokeWidth=2;" parent="CcYeN_tBmfcXj74kv_Qn-4" vertex="1">
          <mxGeometry width="119.5" height="100" as="geometry" />
        </mxCell>
        <mxCell id="CcYeN_tBmfcXj74kv_Qn-6" value="" style="sketch=0;pointerEvents=1;shadow=0;dashed=0;html=1;strokeColor=none;fillColor=#434445;aspect=fixed;labelPosition=center;verticalLabelPosition=bottom;verticalAlign=top;align=center;outlineConnect=0;shape=mxgraph.vvd.virtual_machine;rounded=0;strokeWidth=3;fontFamily=Helvetica;fontSize=12;fontColor=default;" parent="CcYeN_tBmfcXj74kv_Qn-4" vertex="1">
          <mxGeometry x="29.749945119510336" y="11" width="56.23449131513648" height="56.23449131513648" as="geometry" />
        </mxCell>
        <mxCell id="CcYeN_tBmfcXj74kv_Qn-7" value="&lt;b&gt;&lt;font style=&quot;color: rgb(0, 0, 0); font-size: 20px;&quot;&gt;Pfsense&lt;/font&gt;&lt;/b&gt;" style="text;html=1;align=center;verticalAlign=middle;resizable=0;points=[];autosize=1;strokeColor=none;fillColor=none;" parent="CcYeN_tBmfcXj74kv_Qn-4" vertex="1">
          <mxGeometry x="9.847748608618172" y="64.75" width="100" height="40" as="geometry" />
        </mxCell>
        <mxCell id="CcYeN_tBmfcXj74kv_Qn-8" value="" style="group" parent="CcYeN_tBmfcXj74kv_Qn-15" vertex="1" connectable="0">
          <mxGeometry x="326" y="499" width="119.84774860861818" height="104.75" as="geometry" />
        </mxCell>
        <mxCell id="CcYeN_tBmfcXj74kv_Qn-9" value="" style="swimlane;startSize=0;strokeWidth=2;" parent="CcYeN_tBmfcXj74kv_Qn-8" vertex="1">
          <mxGeometry width="119.5" height="100" as="geometry" />
        </mxCell>
        <mxCell id="CcYeN_tBmfcXj74kv_Qn-10" value="" style="sketch=0;pointerEvents=1;shadow=0;dashed=0;html=1;strokeColor=none;fillColor=#434445;aspect=fixed;labelPosition=center;verticalLabelPosition=bottom;verticalAlign=top;align=center;outlineConnect=0;shape=mxgraph.vvd.virtual_machine;rounded=0;strokeWidth=3;fontFamily=Helvetica;fontSize=12;fontColor=default;" parent="CcYeN_tBmfcXj74kv_Qn-8" vertex="1">
          <mxGeometry x="29.749945119510336" y="11" width="56.23449131513648" height="56.23449131513648" as="geometry" />
        </mxCell>
        <mxCell id="CcYeN_tBmfcXj74kv_Qn-11" value="&lt;b&gt;&lt;font style=&quot;color: rgb(0, 0, 0); font-size: 20px;&quot;&gt;Kali Linux&lt;/font&gt;&lt;/b&gt;" style="text;html=1;align=center;verticalAlign=middle;resizable=0;points=[];autosize=1;strokeColor=none;fillColor=none;" parent="CcYeN_tBmfcXj74kv_Qn-8" vertex="1">
          <mxGeometry x="-0.15225139138182797" y="64.75" width="120" height="40" as="geometry" />
        </mxCell>
        <mxCell id="K5uGJ2R5hkaABnmaKe05-3" value="&lt;p style=&quot;line-height: 100%;&quot;&gt;&lt;font style=&quot;color: rgb(0, 0, 0); font-size: 12px;&quot;&gt;ZTNA_agent&lt;/font&gt;&lt;/p&gt;" style="text;strokeColor=none;fillColor=none;html=1;fontSize=22;fontStyle=1;verticalAlign=middle;align=left;strokeWidth=0;rotation=0;flipH=0;flipV=1;fontColor=#000000;" parent="CcYeN_tBmfcXj74kv_Qn-15" vertex="1">
          <mxGeometry x="52.5" y="461" width="87.13" height="36.73" as="geometry" />
        </mxCell>
        <mxCell id="MFKBEdTGB1Vrko5QTtPI-18" value="&lt;p style=&quot;line-height: 100%;&quot;&gt;&lt;font style=&quot;color: rgb(0, 0, 0); font-size: 11px;&quot;&gt;Vault-SSH-helper&lt;/font&gt;&lt;/p&gt;" style="text;strokeColor=none;fillColor=none;html=1;fontSize=22;fontStyle=1;verticalAlign=middle;align=left;strokeWidth=0;rotation=0;flipH=0;flipV=1;fontColor=#000000;" parent="CcYeN_tBmfcXj74kv_Qn-15" vertex="1">
          <mxGeometry x="737" y="187.09000000000003" width="87.13" height="36.73" as="geometry" />
        </mxCell>
        <mxCell id="MFKBEdTGB1Vrko5QTtPI-19" value="&lt;p style=&quot;line-height: 100%;&quot;&gt;&lt;font style=&quot;color: rgb(0, 0, 0); font-size: 11px;&quot;&gt;Vault-SSH-helper&lt;/font&gt;&lt;/p&gt;" style="text;strokeColor=none;fillColor=none;html=1;fontSize=22;fontStyle=1;verticalAlign=middle;align=left;strokeWidth=0;rotation=0;flipH=0;flipV=1;fontColor=#000000;" parent="CcYeN_tBmfcXj74kv_Qn-15" vertex="1">
          <mxGeometry x="737.87" y="278.18" width="87.13" height="36.73" as="geometry" />
        </mxCell>
        <mxCell id="MFKBEdTGB1Vrko5QTtPI-20" value="&lt;p style=&quot;line-height: 100%;&quot;&gt;&lt;font style=&quot;color: rgb(0, 0, 0); font-size: 11px;&quot;&gt;Vault-SSH-helper&lt;/font&gt;&lt;/p&gt;" style="text;strokeColor=none;fillColor=none;html=1;fontSize=22;fontStyle=1;verticalAlign=middle;align=left;strokeWidth=0;rotation=0;flipH=0;flipV=1;fontColor=#000000;" parent="L7UcbFVyr0ip80qx2Pjm-6" vertex="1">
          <mxGeometry x="737" y="366" width="87.13" height="36.73" as="geometry" />
        </mxCell>
        <mxCell id="MFKBEdTGB1Vrko5QTtPI-21" value="&lt;p style=&quot;line-height: 100%;&quot;&gt;&lt;font style=&quot;color: rgb(0, 0, 0); font-size: 11px;&quot;&gt;Vault-SSH-helper&lt;/font&gt;&lt;/p&gt;" style="text;strokeColor=none;fillColor=none;html=1;fontSize=22;fontStyle=1;verticalAlign=middle;align=left;strokeWidth=0;rotation=0;flipH=0;flipV=1;fontColor=#000000;" parent="L7UcbFVyr0ip80qx2Pjm-6" vertex="1">
          <mxGeometry x="738" y="456" width="87.13" height="36.73" as="geometry" />
        </mxCell>
        <mxCell id="HM08yiMDq2FPGjZvdhq9-1" value="" style="group" parent="1" vertex="1" connectable="0">
          <mxGeometry x="-940" y="-520" width="1110" height="660" as="geometry" />
        </mxCell>
        <mxCell id="MFKBEdTGB1Vrko5QTtPI-6" value="&lt;p style=&quot;line-height: 100%;&quot;&gt;&lt;font style=&quot;color: rgb(0, 0, 0); font-size: 11px;&quot;&gt;Vault-SSH-helper&lt;/font&gt;&lt;/p&gt;" style="text;strokeColor=none;fillColor=none;html=1;fontSize=22;fontStyle=1;verticalAlign=middle;align=left;strokeWidth=0;rotation=0;flipH=0;flipV=1;fontColor=#000000;" parent="HM08yiMDq2FPGjZvdhq9-1" vertex="1">
          <mxGeometry x="936.81" y="369" width="87.13" height="36.73" as="geometry" />
        </mxCell>
        <mxCell id="MFKBEdTGB1Vrko5QTtPI-7" value="&lt;p style=&quot;line-height: 100%;&quot;&gt;&lt;font style=&quot;color: rgb(0, 0, 0); font-size: 11px;&quot;&gt;Vault-SSH-helper&lt;/font&gt;&lt;/p&gt;" style="text;strokeColor=none;fillColor=none;html=1;fontSize=22;fontStyle=1;verticalAlign=middle;align=left;strokeWidth=0;rotation=0;flipH=0;flipV=1;fontColor=#000000;" parent="HM08yiMDq2FPGjZvdhq9-1" vertex="1">
          <mxGeometry x="936.81" y="288" width="87.13" height="36.73" as="geometry" />
        </mxCell>
        <mxCell id="MFKBEdTGB1Vrko5QTtPI-8" value="&lt;p style=&quot;line-height: 100%;&quot;&gt;&lt;font style=&quot;color: rgb(0, 0, 0); font-size: 11px;&quot;&gt;Vault-SSH-helper&lt;/font&gt;&lt;/p&gt;" style="text;strokeColor=none;fillColor=none;html=1;fontSize=22;fontStyle=1;verticalAlign=middle;align=left;strokeWidth=0;rotation=0;flipH=0;flipV=1;fontColor=#000000;" parent="HM08yiMDq2FPGjZvdhq9-1" vertex="1">
          <mxGeometry x="935.81" y="205" width="87.13" height="36.73" as="geometry" />
        </mxCell>
        <mxCell id="MFKBEdTGB1Vrko5QTtPI-9" value="&lt;p style=&quot;line-height: 100%;&quot;&gt;&lt;font style=&quot;color: rgb(0, 0, 0); font-size: 11px;&quot;&gt;Vault-SSH-helper&lt;/font&gt;&lt;/p&gt;" style="text;strokeColor=none;fillColor=none;html=1;fontSize=22;fontStyle=1;verticalAlign=middle;align=right;strokeWidth=0;rotation=0;flipH=0;flipV=1;fontColor=#000000;" parent="HM08yiMDq2FPGjZvdhq9-1" vertex="1">
          <mxGeometry x="940.81" y="121" width="87.13" height="36.73" as="geometry" />
        </mxCell>
        <mxCell id="MFKBEdTGB1Vrko5QTtPI-24" value="" style="group" parent="HM08yiMDq2FPGjZvdhq9-1" vertex="1" connectable="0">
          <mxGeometry width="1110" height="660" as="geometry" />
        </mxCell>
        <mxCell id="CxktvPGWBiX8A-7O_LLw-45" value="" style="rounded=0;whiteSpace=wrap;html=1;strokeWidth=2;fontColor=#000000;" parent="MFKBEdTGB1Vrko5QTtPI-24" vertex="1">
          <mxGeometry width="1110" height="660" as="geometry" />
        </mxCell>
        <mxCell id="CxktvPGWBiX8A-7O_LLw-49" value="" style="rounded=0;whiteSpace=wrap;html=1;" parent="MFKBEdTGB1Vrko5QTtPI-24" vertex="1">
          <mxGeometry x="340.858407079646" y="57" width="739.6725663716815" height="582" as="geometry" />
        </mxCell>
        <mxCell id="S9Cv3rVsNq0ONA8z7l8G-179" value="&lt;h1 style=&quot;&quot;&gt;&lt;font style=&quot;font-size: 24px; color: rgb(0, 0, 0);&quot;&gt;&lt;i style=&quot;&quot;&gt;Security Test Lab - IaC&lt;/i&gt;&lt;/font&gt;&lt;/h1&gt;" style="text;strokeColor=none;fillColor=none;html=1;fontSize=40;fontStyle=1;verticalAlign=middle;align=left;fontFamily=Helvetica;fontColor=default;" parent="MFKBEdTGB1Vrko5QTtPI-24" vertex="1">
          <mxGeometry x="337.91150442477874" y="6" width="432.21238938053096" height="30" as="geometry" />
        </mxCell>
        <mxCell id="n_Z7QNfw0kOYRbPjjem--1" value="" style="group" parent="MFKBEdTGB1Vrko5QTtPI-24" connectable="0" vertex="1">
          <mxGeometry x="353.6283185840708" y="255" width="68.76106194690266" height="88.5" as="geometry" />
        </mxCell>
        <mxCell id="S9Cv3rVsNq0ONA8z7l8G-20" value="" style="pointerEvents=1;shadow=0;dashed=0;html=1;strokeColor=none;fillColor=#666666;labelPosition=center;verticalLabelPosition=bottom;verticalAlign=top;outlineConnect=0;align=center;shape=mxgraph.office.concepts.firewall;" parent="n_Z7QNfw0kOYRbPjjem--1" vertex="1">
          <mxGeometry x="5.730088495575222" width="57.30088495575222" height="58.5" as="geometry" />
        </mxCell>
        <mxCell id="S9Cv3rVsNq0ONA8z7l8G-21" value="&lt;font style=&quot;font-size: 19px; color: rgb(0, 0, 0);&quot;&gt;Firewall&lt;/font&gt;" style="text;html=1;strokeColor=none;fillColor=none;align=center;verticalAlign=middle;whiteSpace=wrap;rounded=0;fontStyle=1" parent="n_Z7QNfw0kOYRbPjjem--1" vertex="1">
          <mxGeometry y="58.5" width="68.76106194690266" height="30" as="geometry" />
        </mxCell>
        <mxCell id="CxktvPGWBiX8A-7O_LLw-41" style="edgeStyle=orthogonalEdgeStyle;rounded=0;orthogonalLoop=1;jettySize=auto;html=1;entryX=0;entryY=0.5;entryDx=0;entryDy=0;endArrow=block;endFill=1;strokeColor=#D47D25;" parent="MFKBEdTGB1Vrko5QTtPI-24" source="S9Cv3rVsNq0ONA8z7l8G-20" target="n_Z7QNfw0kOYRbPjjem--18" edge="1">
          <mxGeometry relative="1" as="geometry" />
        </mxCell>
        <mxCell id="CxktvPGWBiX8A-7O_LLw-52" style="edgeStyle=orthogonalEdgeStyle;rounded=0;orthogonalLoop=1;jettySize=auto;html=1;entryX=0;entryY=0.5;entryDx=0;entryDy=0;endArrow=none;startFill=0;strokeColor=#D47D25;" parent="MFKBEdTGB1Vrko5QTtPI-24" source="n_Z7QNfw0kOYRbPjjem--18" target="S9Cv3rVsNq0ONA8z7l8G-26" edge="1">
          <mxGeometry relative="1" as="geometry">
            <Array as="points">
              <mxPoint x="613.9380530973451" y="346" />
              <mxPoint x="500.9734513274336" y="346" />
              <mxPoint x="500.9734513274336" y="486" />
            </Array>
          </mxGeometry>
        </mxCell>
        <mxCell id="CxktvPGWBiX8A-7O_LLw-160" style="edgeStyle=orthogonalEdgeStyle;rounded=0;orthogonalLoop=1;jettySize=auto;html=1;exitX=1;exitY=0.5;exitDx=0;exitDy=0;entryX=0;entryY=0.5;entryDx=0;entryDy=0;endArrow=block;endFill=1;strokeColor=#D47D25;" parent="MFKBEdTGB1Vrko5QTtPI-24" source="n_Z7QNfw0kOYRbPjjem--18" target="CxktvPGWBiX8A-7O_LLw-139" edge="1">
          <mxGeometry relative="1" as="geometry" />
        </mxCell>
        <mxCell id="n_Z7QNfw0kOYRbPjjem--18" value="" style="rounded=0;whiteSpace=wrap;html=1;dashed=1;strokeWidth=2;strokeColor=light-dark(#FF8000,#D47D25);fontColor=#CC6600;" parent="MFKBEdTGB1Vrko5QTtPI-24" vertex="1">
          <mxGeometry x="500.9734513274336" y="106.25" width="225.92920353982302" height="188.11" as="geometry" />
        </mxCell>
        <mxCell id="n_Z7QNfw0kOYRbPjjem--14" value="" style="swimlane;startSize=0;strokeWidth=2;fontColor=#CC6600;strokeColor=light-dark(#0f0f0f, #d47d25);" parent="MFKBEdTGB1Vrko5QTtPI-24" vertex="1">
          <mxGeometry x="518.7538588186869" y="133.14802529579765" width="194.5184194278658" height="152.3187814497484" as="geometry" />
        </mxCell>
        <mxCell id="ann6PepIxFPNm6nObkSO-1" value="&lt;p style=&quot;line-height: 100%;&quot;&gt;&lt;font style=&quot;font-size: 14px;&quot;&gt;network_ZTNA_1&lt;/font&gt;&lt;/p&gt;" style="text;strokeColor=none;fillColor=none;html=1;fontSize=22;fontStyle=1;verticalAlign=middle;align=left;strokeWidth=0;rotation=0;flipH=0;flipV=1;fontColor=#FF8000;" parent="MFKBEdTGB1Vrko5QTtPI-24" vertex="1">
          <mxGeometry x="498.0265486725664" y="75" width="171.3315497015847" height="30.463756289949675" as="geometry" />
        </mxCell>
        <mxCell id="ann6PepIxFPNm6nObkSO-5" value="" style="sketch=0;outlineConnect=0;fontColor=light-dark(#100f0f, #d47d25);gradientColor=none;fillColor=#000000;strokeColor=none;dashed=0;verticalLabelPosition=bottom;verticalAlign=top;align=center;html=1;fontSize=12;fontStyle=0;aspect=fixed;pointerEvents=1;shape=mxgraph.aws4.traditional_server;" parent="MFKBEdTGB1Vrko5QTtPI-24" vertex="1">
          <mxGeometry x="596.99470055567" y="224.781585747314" width="29.348526698512075" height="50.871777096579684" as="geometry" />
        </mxCell>
        <mxCell id="n_Z7QNfw0kOYRbPjjem--15" value="&lt;b&gt;&lt;font style=&quot;color: rgb(0, 0, 0); font-size: 20px;&quot;&gt;Infrastructure&lt;/font&gt;&lt;/b&gt;&lt;div&gt;&lt;b&gt;&lt;font style=&quot;color: rgb(0, 0, 0); font-size: 20px;&quot;&gt;as code&lt;/font&gt;&lt;/b&gt;&lt;/div&gt;" style="text;html=1;align=center;verticalAlign=middle;resizable=1;points=[];autosize=1;strokeColor=none;fillColor=none;fontColor=light-dark(#4A4A4A,#D47D25);movable=1;rotatable=1;deletable=1;editable=1;locked=0;connectable=1;" parent="MFKBEdTGB1Vrko5QTtPI-24" vertex="1">
          <mxGeometry x="537.2622782465527" y="165.5558479532164" width="150" height="60" as="geometry" />
        </mxCell>
        <mxCell id="S9Cv3rVsNq0ONA8z7l8G-26" value="" style="rounded=0;whiteSpace=wrap;html=1;dashed=1;strokeWidth=2;strokeColor=light-dark(#D47D25,#D47D25);" parent="MFKBEdTGB1Vrko5QTtPI-24" vertex="1">
          <mxGeometry x="531.3" y="398.52" width="165.16" height="191.48" as="geometry" />
        </mxCell>
        <mxCell id="n_Z7QNfw0kOYRbPjjem--16" value="" style="swimlane;startSize=0;strokeWidth=2;" parent="MFKBEdTGB1Vrko5QTtPI-24" vertex="1">
          <mxGeometry x="546.4345521734903" y="429.29359823399557" width="137.17130214917827" height="146.93156732891833" as="geometry" />
        </mxCell>
        <mxCell id="n_Z7QNfw0kOYRbPjjem--26" value="" style="sketch=0;pointerEvents=1;shadow=0;dashed=0;html=1;strokeColor=none;fillColor=#434445;aspect=fixed;labelPosition=center;verticalLabelPosition=bottom;verticalAlign=top;align=center;outlineConnect=0;shape=mxgraph.vvd.virtual_machine;rounded=0;strokeWidth=3;fontFamily=Helvetica;fontSize=12;fontColor=default;" parent="MFKBEdTGB1Vrko5QTtPI-24" vertex="1">
          <mxGeometry x="573.6667314985899" y="458.9867549668874" width="81.18619234601184" height="81.18619234601184" as="geometry" />
        </mxCell>
        <mxCell id="n_Z7QNfw0kOYRbPjjem--17" value="&lt;b&gt;&lt;font style=&quot;color: rgb(0, 0, 0); font-size: 20px;&quot;&gt;Vault&lt;/font&gt;&lt;/b&gt;" style="text;html=1;align=center;verticalAlign=middle;resizable=0;points=[];autosize=1;strokeColor=none;fillColor=none;" parent="MFKBEdTGB1Vrko5QTtPI-24" vertex="1">
          <mxGeometry x="577.0790625303899" y="539.309050772627" width="70" height="40" as="geometry" />
        </mxCell>
        <mxCell id="ann6PepIxFPNm6nObkSO-2" value="&lt;p style=&quot;line-height: 100%;&quot;&gt;&lt;font style=&quot;font-size: 14px;&quot;&gt;network_ZTNA_2&lt;/font&gt;&lt;/p&gt;" style="text;strokeColor=none;fillColor=none;html=1;fontSize=22;fontStyle=1;verticalAlign=middle;align=left;strokeWidth=0;rotation=0;flipH=0;flipV=1;fontColor=#FF8000;" parent="MFKBEdTGB1Vrko5QTtPI-24" vertex="1">
          <mxGeometry x="529.4601769911504" y="364.08167770419425" width="165.15608285519792" height="36.73289183222958" as="geometry" />
        </mxCell>
        <mxCell id="P3hBXVMKaaekGwSQqUjz-2" value="&lt;p style=&quot;line-height: 100%;&quot;&gt;&lt;font style=&quot;color: rgb(0, 0, 0); font-size: 12px;&quot;&gt;ZTNA_agent&lt;/font&gt;&lt;/p&gt;" style="text;strokeColor=none;fillColor=none;html=1;fontSize=22;fontStyle=1;verticalAlign=middle;align=left;strokeWidth=0;rotation=0;flipH=0;flipV=1;fontColor=#000000;" parent="MFKBEdTGB1Vrko5QTtPI-24" vertex="1">
          <mxGeometry x="537.26" y="392.25" width="82.74" height="36.73" as="geometry" />
        </mxCell>
        <mxCell id="P3hBXVMKaaekGwSQqUjz-3" value="&lt;p style=&quot;line-height: 100%;&quot;&gt;&lt;font style=&quot;color: rgb(0, 0, 0); font-size: 12px;&quot;&gt;ZTNA_agent&lt;/font&gt;&lt;/p&gt;" style="text;strokeColor=none;fillColor=none;html=1;fontSize=22;fontStyle=1;verticalAlign=middle;align=left;strokeWidth=0;rotation=0;flipH=0;flipV=1;fontColor=#000000;" parent="MFKBEdTGB1Vrko5QTtPI-24" vertex="1">
          <mxGeometry x="506.21000000000004" y="99.27" width="87.13" height="33.73" as="geometry" />
        </mxCell>
        <mxCell id="CxktvPGWBiX8A-7O_LLw-139" value="" style="rounded=0;whiteSpace=wrap;html=1;dashed=1;strokeWidth=2;strokeColor=#D47D25;" parent="MFKBEdTGB1Vrko5QTtPI-24" vertex="1">
          <mxGeometry x="822.78" y="108" width="226.32" height="520" as="geometry" />
        </mxCell>
        <mxCell id="CxktvPGWBiX8A-7O_LLw-140" value="" style="swimlane;startSize=0;strokeWidth=2;fontColor=#CC6600;strokeColor=light-dark(#0d0d0c, #d47d25);" parent="MFKBEdTGB1Vrko5QTtPI-24" vertex="1">
          <mxGeometry x="841.6353982300885" y="463.67534306618563" width="188.60176991150445" height="72.82780943389864" as="geometry">
            <mxRectangle x="-770" y="140" width="50" height="40" as="alternateBounds" />
          </mxGeometry>
        </mxCell>
        <mxCell id="CxktvPGWBiX8A-7O_LLw-141" value="&lt;font style=&quot;font-size: 20px;&quot; color=&quot;#000000&quot;&gt;&lt;b style=&quot;&quot;&gt;Backup&lt;/b&gt;&lt;/font&gt;" style="text;html=1;align=center;verticalAlign=middle;resizable=0;points=[];autosize=1;strokeColor=none;fillColor=none;fontColor=light-dark(#100f0f, #d47d25);" parent="CxktvPGWBiX8A-7O_LLw-140" vertex="1">
          <mxGeometry x="38.11150442477876" y="10.910347617923733" width="100" height="40" as="geometry" />
        </mxCell>
        <mxCell id="CxktvPGWBiX8A-7O_LLw-142" value="" style="sketch=0;outlineConnect=0;fontColor=#232F3E;gradientColor=none;fillColor=#000000;strokeColor=none;dashed=0;verticalLabelPosition=bottom;verticalAlign=top;align=center;html=1;fontSize=12;fontStyle=0;aspect=fixed;pointerEvents=1;shape=mxgraph.aws4.container_1;" parent="CxktvPGWBiX8A-7O_LLw-140" vertex="1">
          <mxGeometry x="66.95362831858407" y="43.41390471694932" width="40.35366171314076" height="26.061739856403403" as="geometry" />
        </mxCell>
        <mxCell id="CxktvPGWBiX8A-7O_LLw-147" value="" style="swimlane;startSize=0;strokeWidth=2;fontColor=#CC6600;strokeColor=light-dark(#0d0d0c, #d47d25);" parent="MFKBEdTGB1Vrko5QTtPI-24" vertex="1">
          <mxGeometry x="841.6353982300885" y="545.6066286793216" width="188.60176991150445" height="72.82780943389864" as="geometry">
            <mxRectangle x="-770" y="140" width="50" height="40" as="alternateBounds" />
          </mxGeometry>
        </mxCell>
        <mxCell id="CxktvPGWBiX8A-7O_LLw-148" value="&lt;b style=&quot;&quot;&gt;&lt;font style=&quot;color: rgb(0, 0, 0); font-size: 20px;&quot;&gt;NAS&lt;/font&gt;&lt;/b&gt;" style="text;html=1;align=center;verticalAlign=middle;resizable=0;points=[];autosize=1;strokeColor=none;fillColor=none;fontColor=light-dark(#100f0f, #d47d25);" parent="CxktvPGWBiX8A-7O_LLw-147" vertex="1">
          <mxGeometry x="51.61592920353982" y="10.910347617923733" width="70" height="40" as="geometry" />
        </mxCell>
        <mxCell id="CxktvPGWBiX8A-7O_LLw-149" value="" style="sketch=0;outlineConnect=0;fontColor=#232F3E;gradientColor=none;fillColor=#000000;strokeColor=none;dashed=0;verticalLabelPosition=bottom;verticalAlign=top;align=center;html=1;fontSize=12;fontStyle=0;aspect=fixed;pointerEvents=1;shape=mxgraph.aws4.container_1;" parent="CxktvPGWBiX8A-7O_LLw-147" vertex="1">
          <mxGeometry x="66.95" y="42.41" width="42.71" height="27.59" as="geometry" />
        </mxCell>
        <mxCell id="CxktvPGWBiX8A-7O_LLw-150" value="" style="swimlane;startSize=0;strokeWidth=2;fontColor=#CC6600;strokeColor=light-dark(#0d0d0c, #d47d25);" parent="MFKBEdTGB1Vrko5QTtPI-24" vertex="1">
          <mxGeometry x="841.64" y="381.74" width="188.36" height="77.48" as="geometry">
            <mxRectangle x="-770" y="140" width="50" height="40" as="alternateBounds" />
          </mxGeometry>
        </mxCell>
        <mxCell id="CxktvPGWBiX8A-7O_LLw-151" value="&lt;b style=&quot;&quot;&gt;&lt;font style=&quot;color: rgb(0, 0, 0); font-size: 20px;&quot;&gt;Safe Credential&lt;/font&gt;&lt;/b&gt;" style="text;html=1;align=center;verticalAlign=middle;resizable=0;points=[];autosize=1;strokeColor=none;fillColor=none;fontColor=light-dark(#100f0f, #d47d25);" parent="CxktvPGWBiX8A-7O_LLw-150" vertex="1">
          <mxGeometry x="-2" y="10.910347617923733" width="170" height="40" as="geometry" />
        </mxCell>
        <mxCell id="CxktvPGWBiX8A-7O_LLw-152" value="" style="sketch=0;outlineConnect=0;fontColor=#232F3E;gradientColor=none;fillColor=#000000;strokeColor=none;dashed=0;verticalLabelPosition=bottom;verticalAlign=top;align=center;html=1;fontSize=12;fontStyle=0;aspect=fixed;pointerEvents=1;shape=mxgraph.aws4.container_1;" parent="CxktvPGWBiX8A-7O_LLw-150" vertex="1">
          <mxGeometry x="66.95362831858407" y="45.41390471694932" width="40.35366171314076" height="26.061739856403403" as="geometry" />
        </mxCell>
        <mxCell id="CxktvPGWBiX8A-7O_LLw-153" value="" style="swimlane;startSize=0;strokeWidth=2;fontColor=#CC6600;strokeColor=light-dark(#0d0d0c, #d47d25);" parent="MFKBEdTGB1Vrko5QTtPI-24" vertex="1">
          <mxGeometry x="841.64" y="217.88" width="188.36" height="72.83" as="geometry">
            <mxRectangle x="-770" y="140" width="50" height="40" as="alternateBounds" />
          </mxGeometry>
        </mxCell>
        <mxCell id="CxktvPGWBiX8A-7O_LLw-154" value="&lt;b style=&quot;&quot;&gt;&lt;font style=&quot;color: light-dark(rgb(0, 0, 0), rgb(237, 237, 237)); font-size: 20px;&quot;&gt;Web Application&lt;/font&gt;&lt;/b&gt;" style="text;html=1;align=center;verticalAlign=middle;resizable=0;points=[];autosize=1;strokeColor=none;fillColor=none;fontColor=light-dark(#100f0f, #d47d25);" parent="CxktvPGWBiX8A-7O_LLw-153" vertex="1">
          <mxGeometry x="1.9185840707964488" y="8.910347617923733" width="180" height="40" as="geometry" />
        </mxCell>
        <mxCell id="CxktvPGWBiX8A-7O_LLw-155" value="" style="sketch=0;outlineConnect=0;fontColor=#232F3E;gradientColor=none;fillColor=#000000;strokeColor=none;dashed=0;verticalLabelPosition=bottom;verticalAlign=top;align=center;html=1;fontSize=12;fontStyle=0;aspect=fixed;pointerEvents=1;shape=mxgraph.aws4.container_1;" parent="CxktvPGWBiX8A-7O_LLw-153" vertex="1">
          <mxGeometry x="66.95362831858407" y="43.41390471694932" width="40.35366171314076" height="26.061739856403403" as="geometry" />
        </mxCell>
        <mxCell id="CxktvPGWBiX8A-7O_LLw-156" value="&lt;p style=&quot;line-height: 100%;&quot;&gt;&lt;font style=&quot;font-size: 14px;&quot;&gt;network_ZTNA_3&lt;/font&gt;&lt;/p&gt;" style="text;strokeColor=none;fillColor=none;html=1;fontSize=22;fontStyle=1;verticalAlign=middle;align=left;strokeWidth=0;rotation=0;flipH=0;flipV=1;fontColor=#FF8000;" parent="MFKBEdTGB1Vrko5QTtPI-24" vertex="1">
          <mxGeometry x="821.83" y="75" width="128.17" height="31.94" as="geometry" />
        </mxCell>
        <mxCell id="CxktvPGWBiX8A-7O_LLw-157" value="" style="swimlane;startSize=0;strokeWidth=2;fontColor=#CC6600;strokeColor=light-dark(#0d0d0c, #d47d25);" parent="MFKBEdTGB1Vrko5QTtPI-24" vertex="1">
          <mxGeometry x="841.6353982300885" y="134.13722647425737" width="188.60176991150445" height="72.83182429836961" as="geometry">
            <mxRectangle x="-770" y="140" width="50" height="40" as="alternateBounds" />
          </mxGeometry>
        </mxCell>
        <mxCell id="CxktvPGWBiX8A-7O_LLw-158" value="&lt;b style=&quot;&quot;&gt;&lt;font style=&quot;color: light-dark(rgb(0, 0, 0), rgb(237, 237, 237)); font-size: 20px;&quot;&gt;HTTP Server&lt;/font&gt;&lt;/b&gt;" style="text;html=1;align=center;verticalAlign=middle;resizable=0;points=[];autosize=1;strokeColor=none;fillColor=none;fontColor=light-dark(#100f0f, #d47d25);" parent="CxktvPGWBiX8A-7O_LLw-157" vertex="1">
          <mxGeometry x="19.203539823008853" y="10.910347617923733" width="140" height="40" as="geometry" />
        </mxCell>
        <mxCell id="CxktvPGWBiX8A-7O_LLw-159" value="" style="sketch=0;outlineConnect=0;fontColor=#232F3E;gradientColor=none;fillColor=#000000;strokeColor=none;dashed=0;verticalLabelPosition=bottom;verticalAlign=top;align=center;html=1;fontSize=12;fontStyle=0;aspect=fixed;pointerEvents=1;shape=mxgraph.aws4.container_1;" parent="CxktvPGWBiX8A-7O_LLw-157" vertex="1">
          <mxGeometry x="66.95362831858407" y="43.41390471694932" width="40.35366171314076" height="26.061739856403403" as="geometry" />
        </mxCell>
        <mxCell id="P3hBXVMKaaekGwSQqUjz-4" value="&lt;p style=&quot;line-height: 100%;&quot;&gt;&lt;font style=&quot;color: rgb(0, 0, 0); font-size: 12px;&quot;&gt;ZTNA_agent&lt;/font&gt;&lt;/p&gt;" style="text;strokeColor=none;fillColor=none;html=1;fontSize=22;fontStyle=1;verticalAlign=middle;align=left;strokeWidth=0;rotation=0;flipH=0;flipV=1;fontColor=#000000;" parent="MFKBEdTGB1Vrko5QTtPI-24" vertex="1">
          <mxGeometry x="827.78" y="101.25" width="82.74" height="36.73" as="geometry" />
        </mxCell>
        <mxCell id="MFKBEdTGB1Vrko5QTtPI-26" style="edgeStyle=orthogonalEdgeStyle;rounded=0;orthogonalLoop=1;jettySize=auto;html=1;exitX=1;exitY=0.75;exitDx=0;exitDy=0;entryX=0.5;entryY=0;entryDx=0;entryDy=0;endArrow=block;endFill=1;strokeColor=#D47D25;" parent="MFKBEdTGB1Vrko5QTtPI-24" source="PgFq0PD8M621qgvkV6Xd-31" target="MFKBEdTGB1Vrko5QTtPI-14" edge="1">
          <mxGeometry relative="1" as="geometry" />
        </mxCell>
        <mxCell id="PgFq0PD8M621qgvkV6Xd-31" value="ZTNA" style="swimlane;startSize=50;horizontal=1;containerType=tree;fontSize=24;fontColor=#000000;strokeColor=#D47D25;" parent="MFKBEdTGB1Vrko5QTtPI-24" vertex="1">
          <mxGeometry x="29.46902654867256" y="159" width="186.63716814159292" height="255.31216412696327" as="geometry" />
        </mxCell>
        <mxCell id="PgFq0PD8M621qgvkV6Xd-38" value="&lt;b style=&quot;&quot;&gt;&lt;font style=&quot;font-size: 22px; color: rgb(0, 0, 0);&quot;&gt;Controller&lt;/font&gt;&lt;/b&gt;" style="whiteSpace=wrap;html=1;treeFolding=1;treeMoving=1;newEdgeStyle={&quot;edgeStyle&quot;:&quot;elbowEdgeStyle&quot;,&quot;startArrow&quot;:&quot;none&quot;,&quot;endArrow&quot;:&quot;none&quot;};strokeColor=#D47D25;" parent="PgFq0PD8M621qgvkV6Xd-31" vertex="1">
          <mxGeometry x="8.349557522123895" y="59.6706590488305" width="169.93805309734512" height="48.910376269533195" as="geometry" />
        </mxCell>
        <mxCell id="DsAFyzbHcJ4Hr4WfZOtH-6" value="" style="group;strokeColor=#D47D25;" parent="PgFq0PD8M621qgvkV6Xd-31" connectable="0" vertex="1">
          <mxGeometry x="25.53982300884956" y="108.58103531836369" width="161.09734513274338" height="136.94905355469294" as="geometry" />
        </mxCell>
        <mxCell id="DsAFyzbHcJ4Hr4WfZOtH-3" value="&lt;font style=&quot;font-size: 18px; color: rgb(0, 0, 0);&quot;&gt;Device security posture&lt;/font&gt;" style="whiteSpace=wrap;html=1;treeFolding=1;treeMoving=1;newEdgeStyle={&quot;edgeStyle&quot;:&quot;elbowEdgeStyle&quot;,&quot;startArrow&quot;:&quot;none&quot;,&quot;endArrow&quot;:&quot;none&quot;};strokeColor=#D47D25;" parent="DsAFyzbHcJ4Hr4WfZOtH-6" vertex="1">
          <mxGeometry x="-12.887787610619469" y="91.29936903646197" width="161.09734513274338" height="45.649684518230984" as="geometry" />
        </mxCell>
        <mxCell id="DsAFyzbHcJ4Hr4WfZOtH-5" value="&lt;font style=&quot;font-size: 18px; color: rgb(0, 0, 0);&quot;&gt;Contextual factors&lt;/font&gt;" style="whiteSpace=wrap;html=1;treeFolding=1;treeMoving=1;newEdgeStyle={&quot;edgeStyle&quot;:&quot;elbowEdgeStyle&quot;,&quot;startArrow&quot;:&quot;none&quot;,&quot;endArrow&quot;:&quot;none&quot;};strokeColor=#D47D25;" parent="DsAFyzbHcJ4Hr4WfZOtH-6" vertex="1">
          <mxGeometry x="-12.887787610619469" y="45.649684518230984" width="161.09734513274338" height="45.649684518230984" as="geometry" />
        </mxCell>
        <mxCell id="PgFq0PD8M621qgvkV6Xd-37" value="&lt;font style=&quot;font-size: 18px; color: rgb(0, 0, 0);&quot;&gt;Multiple identity providers&lt;/font&gt;" style="whiteSpace=wrap;html=1;treeFolding=1;treeMoving=1;newEdgeStyle={&quot;edgeStyle&quot;:&quot;elbowEdgeStyle&quot;,&quot;startArrow&quot;:&quot;none&quot;,&quot;endArrow&quot;:&quot;none&quot;};strokeColor=#D47D25;" parent="DsAFyzbHcJ4Hr4WfZOtH-6" vertex="1">
          <mxGeometry x="-12.887787610619469" width="161.09734513274338" height="45.649684518230984" as="geometry" />
        </mxCell>
        <mxCell id="CxktvPGWBiX8A-7O_LLw-39" style="edgeStyle=orthogonalEdgeStyle;rounded=0;orthogonalLoop=1;jettySize=auto;html=1;endArrow=block;endFill=1;strokeColor=#D47D25;" parent="MFKBEdTGB1Vrko5QTtPI-24" edge="1">
          <mxGeometry relative="1" as="geometry">
            <mxPoint x="119.87610619469027" y="419.3339566015726" as="targetPoint" />
            <mxPoint x="119.90000000000009" y="497.59055863282583" as="sourcePoint" />
          </mxGeometry>
        </mxCell>
        <mxCell id="MFKBEdTGB1Vrko5QTtPI-25" style="edgeStyle=orthogonalEdgeStyle;rounded=0;orthogonalLoop=1;jettySize=auto;html=1;endArrow=block;endFill=1;strokeColor=#D47D25;" parent="MFKBEdTGB1Vrko5QTtPI-24" source="PgFq0PD8M621qgvkV6Xd-25" target="MFKBEdTGB1Vrko5QTtPI-14" edge="1">
          <mxGeometry relative="1" as="geometry" />
        </mxCell>
        <mxCell id="PgFq0PD8M621qgvkV6Xd-25" value="" style="sketch=0;pointerEvents=1;shadow=0;dashed=0;html=1;strokeColor=none;fillColor=#505050;labelPosition=center;verticalLabelPosition=bottom;verticalAlign=top;outlineConnect=0;align=center;shape=mxgraph.office.users.users;" parent="MFKBEdTGB1Vrko5QTtPI-24" vertex="1">
          <mxGeometry x="79.58407079646017" y="478.5905586328257" width="78.58407079646018" height="78.25660203125311" as="geometry" />
        </mxCell>
        <mxCell id="CxktvPGWBiX8A-7O_LLw-46" value="&lt;b&gt;&lt;font style=&quot;font-size: 22px; color: rgb(0, 0, 0);&quot;&gt;Users&lt;/font&gt;&lt;/b&gt;" style="text;html=1;align=center;verticalAlign=middle;resizable=0;points=[];autosize=1;strokeColor=none;fillColor=none;fontColor=light-dark(#4A4A4A,#D47D25);" parent="MFKBEdTGB1Vrko5QTtPI-24" vertex="1">
          <mxGeometry x="82.78626054743783" y="562.0216989843734" width="80" height="40" as="geometry" />
        </mxCell>
        <mxCell id="P3hBXVMKaaekGwSQqUjz-5" style="edgeStyle=elbowEdgeStyle;rounded=0;orthogonalLoop=1;jettySize=auto;html=1;startArrow=none;endArrow=block;endFill=1;entryX=0.02;entryY=0.585;entryDx=0;entryDy=0;entryPerimeter=0;strokeColor=#D47D25;" parent="MFKBEdTGB1Vrko5QTtPI-24" source="PgFq0PD8M621qgvkV6Xd-37" target="S9Cv3rVsNq0ONA8z7l8G-20" edge="1">
          <mxGeometry relative="1" as="geometry">
            <mxPoint x="350" y="290.40587757747926" as="targetPoint" />
          </mxGeometry>
        </mxCell>
        <mxCell id="CxktvPGWBiX8A-7O_LLw-40" value="" style="outlineConnect=0;dashed=0;verticalLabelPosition=bottom;verticalAlign=top;align=center;html=1;shape=mxgraph.aws3.internet_2;fillColor=light-dark(#434242, #373838);gradientColor=none;strokeColor=#808080;" parent="MFKBEdTGB1Vrko5QTtPI-24" vertex="1">
          <mxGeometry x="236.73451327433628" y="255" width="78.0929203539823" height="54" as="geometry" />
        </mxCell>
        <mxCell id="MFKBEdTGB1Vrko5QTtPI-14" value="IdP" style="whiteSpace=wrap;html=1;aspect=fixed;fontSize=20;fontStyle=1;strokeColor=#D47D25;" parent="MFKBEdTGB1Vrko5QTtPI-24" vertex="1">
          <mxGeometry x="249.03000000000003" y="472.83" width="53.5" height="53.5" as="geometry" />
        </mxCell>
        <mxCell id="CxktvPGWBiX8A-7O_LLw-144" value="" style="swimlane;startSize=0;strokeWidth=2;fontColor=#CC6600;strokeColor=light-dark(#0d0d0c, #d47d25);" parent="MFKBEdTGB1Vrko5QTtPI-24" vertex="1">
          <mxGeometry x="841.6353982300885" y="300.72311945783736" width="188.60176991150448" height="72.82780943389864" as="geometry">
            <mxRectangle x="-770" y="140" width="50" height="40" as="alternateBounds" />
          </mxGeometry>
        </mxCell>
        <mxCell id="CxktvPGWBiX8A-7O_LLw-145" value="&lt;b style=&quot;&quot;&gt;&lt;font style=&quot;color: rgb(0, 0, 0); font-size: 20px;&quot;&gt;Database&lt;/font&gt;&lt;/b&gt;" style="text;html=1;align=center;verticalAlign=middle;resizable=0;points=[];autosize=1;strokeColor=none;fillColor=none;fontColor=light-dark(#100f0f, #d47d25);" parent="CxktvPGWBiX8A-7O_LLw-144" vertex="1">
          <mxGeometry x="35.96212389380531" y="10.910347617923733" width="110" height="40" as="geometry" />
        </mxCell>
        <mxCell id="CxktvPGWBiX8A-7O_LLw-146" value="" style="sketch=0;outlineConnect=0;fontColor=#232F3E;gradientColor=none;fillColor=#000000;strokeColor=none;dashed=0;verticalLabelPosition=bottom;verticalAlign=top;align=center;html=1;fontSize=12;fontStyle=0;aspect=fixed;pointerEvents=1;shape=mxgraph.aws4.container_1;" parent="CxktvPGWBiX8A-7O_LLw-144" vertex="1">
          <mxGeometry x="66.9536283185841" y="43.41390471694932" width="40.35366171314077" height="26.06173985640341" as="geometry" />
        </mxCell>
        <mxCell id="nXPyluJb9L3aJKMdB9aw-1" value="&lt;div&gt;&lt;b&gt;&lt;font style=&quot;color: rgb(212, 125, 37); font-size: 17px;&quot;&gt;22&lt;/font&gt;&lt;/b&gt;&lt;/div&gt;&lt;div&gt;&lt;b style=&quot;background-color: transparent; color: light-dark(rgb(0, 0, 0), rgb(255, 255, 255));&quot;&gt;&lt;font style=&quot;color: rgb(212, 125, 37); font-size: 17px;&quot;&gt;443&lt;/font&gt;&lt;/b&gt;&lt;/div&gt;" style="text;html=1;align=center;verticalAlign=middle;resizable=0;points=[];autosize=1;strokeColor=none;fillColor=none;" vertex="1" parent="MFKBEdTGB1Vrko5QTtPI-24">
          <mxGeometry x="780.1190625303899" y="145.549050772627" width="50" height="50" as="geometry" />
        </mxCell>
        <mxCell id="nXPyluJb9L3aJKMdB9aw-2" value="&lt;div&gt;&lt;font color=&quot;#d47d25&quot;&gt;&lt;span style=&quot;font-size: 17px;&quot;&gt;&lt;b&gt;22&lt;/b&gt;&lt;/span&gt;&lt;/font&gt;&lt;/div&gt;&lt;font color=&quot;#d47d25&quot;&gt;&lt;span style=&quot;font-size: 17px;&quot;&gt;&lt;b&gt;3306&lt;/b&gt;&lt;/span&gt;&lt;/font&gt;&lt;div&gt;&lt;font color=&quot;#d47d25&quot;&gt;&lt;span style=&quot;font-size: 17px;&quot;&gt;&lt;b&gt;5001&lt;/b&gt;&lt;/span&gt;&lt;/font&gt;&lt;/div&gt;" style="text;html=1;align=center;verticalAlign=middle;resizable=0;points=[];autosize=1;strokeColor=none;fillColor=none;" vertex="1" parent="MFKBEdTGB1Vrko5QTtPI-24">
          <mxGeometry x="770.1190625303899" y="300.71905077262704" width="60" height="70" as="geometry" />
        </mxCell>
        <mxCell id="nXPyluJb9L3aJKMdB9aw-4" value="&lt;div&gt;&lt;b&gt;&lt;font style=&quot;color: rgb(212, 125, 37); font-size: 17px;&quot;&gt;22&lt;/font&gt;&lt;/b&gt;&lt;/div&gt;&lt;div&gt;&lt;b style=&quot;background-color: transparent; color: light-dark(rgb(0, 0, 0), rgb(255, 255, 255));&quot;&gt;&lt;font style=&quot;color: rgb(212, 125, 37); font-size: 17px;&quot;&gt;8201&lt;/font&gt;&lt;/b&gt;&lt;/div&gt;" style="text;html=1;align=center;verticalAlign=middle;resizable=0;points=[];autosize=1;strokeColor=none;fillColor=none;" vertex="1" parent="MFKBEdTGB1Vrko5QTtPI-24">
          <mxGeometry x="474.45906253038993" y="492.71905077262704" width="60" height="50" as="geometry" />
        </mxCell>
        <mxCell id="nXPyluJb9L3aJKMdB9aw-3" value="&lt;div&gt;&lt;b&gt;&lt;font style=&quot;color: rgb(212, 125, 37); font-size: 17px;&quot;&gt;&amp;nbsp;22&lt;/font&gt;&lt;/b&gt;&lt;/div&gt;&lt;div&gt;&lt;b&gt;&lt;font style=&quot;color: rgb(212, 125, 37); font-size: 17px;&quot;&gt;5000&lt;/font&gt;&lt;/b&gt;&lt;/div&gt;" style="text;html=1;align=center;verticalAlign=middle;resizable=0;points=[];autosize=1;strokeColor=none;fillColor=none;" vertex="1" parent="MFKBEdTGB1Vrko5QTtPI-24">
          <mxGeometry x="770.1236643003014" y="409.21905077262704" width="60" height="50" as="geometry" />
        </mxCell>
      </root>
    </mxGraphModel>
  </diagram>
</mxfile>
